<svg width="32" height="32" viewBox="0 0 32 32" fill="none" xmlns="http://www.w3.org/2000/svg">
<path d="M21.8458 27.5393C20.3581 27.5393 18.9284 27.5393 17.4569 27.5393C17.8793 28.4111 17.9652 29.2936 17.5892 30.1927C17.3444 30.7762 16.9556 31.2353 16.4253 31.565C15.3762 32.2162 14.0185 32.1165 13.0796 31.3266C12.0062 30.4228 11.766 29.1821 12.3694 27.5263C12.0886 27.5263 11.8229 27.5346 11.5583 27.5251C10.0253 27.4693 8.86597 26.3152 8.73716 24.7235C8.62228 23.2977 9.64001 21.9479 11.0743 21.655C11.3204 21.6052 11.3192 21.5245 11.2461 21.3146C9.09227 15.1645 6.94656 9.01331 4.79737 2.8621C4.63258 2.39003 4.43298 2.25362 3.92701 2.25244C2.89187 2.25006 1.85789 2.25837 0.822755 2.24888C0.229755 2.24295 -0.12651 1.78629 0.0417586 1.27152C0.152003 0.932286 0.404986 0.761485 0.739201 0.757927C1.88691 0.748438 3.03693 0.718785 4.18348 0.769788C5.13158 0.812488 5.79769 1.34506 6.12727 2.26548C6.62163 3.64731 7.10438 5.0327 7.57901 6.42046C7.65328 6.6387 7.74032 6.72529 7.9817 6.72173C9.23152 6.70631 10.4825 6.70631 11.7335 6.72055C11.9784 6.72292 12.0433 6.65531 12.084 6.40504C12.6224 3.12779 14.8122 0.795883 17.9432 0.139959C21.8435 -0.676091 25.8413 2.17178 26.4506 6.19865C26.461 6.26745 26.49 6.33624 26.4866 6.40385C26.4715 6.66599 26.5898 6.72173 26.8335 6.71936C28.2551 6.70631 29.6755 6.71224 31.0971 6.71343C31.8723 6.71462 32.1659 7.13569 31.9094 7.88413C30.2569 12.7164 28.6021 17.5474 26.9473 22.3785C26.7535 22.9443 26.5852 23.0653 25.9968 23.0653C21.2784 23.0653 16.5611 23.0664 11.8426 23.0641C11.484 23.0641 11.1428 23.1127 10.8365 23.3238C10.3189 23.6809 10.074 24.3309 10.2353 24.9405C10.3966 25.549 10.9281 25.9997 11.5409 26.0424C11.665 26.0507 11.7904 26.0472 11.9157 26.0472C16.0423 26.0472 20.1701 26.0448 24.2967 26.0484C25.7671 26.0495 26.909 26.9818 27.2223 28.4158C27.5693 30.0064 26.5481 31.5852 24.942 31.9386C23.4194 32.2731 21.84 31.2032 21.5302 29.6375C21.3875 28.9164 21.5035 28.2379 21.8458 27.5393Z" fill="#0F1114"/>
<path d="M8.22314 8.19702C9.45905 8.19702 10.652 8.20295 11.8461 8.19109C12.0504 8.18871 12.0469 8.29072 12.0713 8.43661C12.5888 11.517 14.2762 13.62 17.1947 14.5617C21.3631 15.9068 25.7753 13.0684 26.4495 8.66672C26.5064 8.29191 26.6154 8.17092 27.0054 8.18397C28.073 8.22074 29.1418 8.19702 30.257 8.19702C30.1653 8.4722 30.0841 8.72721 29.997 8.97867C28.5894 13.0874 27.1806 17.1961 25.7799 21.3072C25.7091 21.5148 25.6302 21.5907 25.4085 21.5907C21.3272 21.5836 17.247 21.5847 13.1656 21.5883C12.9799 21.5883 12.8697 21.561 12.7954 21.3487C11.2903 17.017 9.77585 12.6888 8.26376 8.35951C8.24867 8.31919 8.24171 8.2753 8.22314 8.19702Z" fill="#FDFDFD"/>
<path d="M25.0987 7.45314C25.0999 10.7256 22.5016 13.3932 19.2987 13.4075C16.0958 13.4229 13.4685 10.7375 13.4685 7.44958C13.4685 4.15692 16.0796 1.49408 19.3022 1.5012C22.5051 1.50713 25.0976 4.16996 25.0987 7.45314Z" fill="#FDCD33"/>
<path d="M24.3849 30.51C23.5912 30.5136 22.932 29.8517 22.9192 29.0392C22.9065 28.2244 23.5888 27.5234 24.3884 27.5317C25.181 27.5388 25.8343 28.2137 25.8332 29.025C25.8309 29.8387 25.181 30.5065 24.3849 30.51Z" fill="#FDFDFD"/>
<path d="M16.365 29.0131C16.3685 29.8338 15.7302 30.5016 14.9353 30.5099C14.1218 30.5182 13.4661 29.8505 13.4696 29.0154C13.4731 28.1958 14.1206 27.5328 14.9167 27.5316C15.7128 27.5316 16.3615 28.1946 16.365 29.0131Z" fill="#FDFDFD"/>
<path d="M20.9558 10.3851H17.283V9.39704C17.8899 8.96529 18.4237 8.48729 18.8879 7.96184C19.3509 7.43639 19.583 6.9738 19.583 6.57052C19.583 6.32499 19.5122 6.13166 19.373 5.98814C19.2325 5.8458 19.019 5.77345 18.7324 5.77345C18.2554 5.77345 17.8028 5.9573 17.3758 6.32499V5.09143C17.5615 4.95147 17.8028 4.83167 18.0999 4.73322C18.397 4.63359 18.6894 4.58496 18.9761 4.58496C19.5494 4.58496 20.0054 4.74152 20.3443 5.05347C20.6843 5.36542 20.8537 5.80191 20.8537 6.36176C20.8537 7.37115 20.2364 8.35088 19.0005 9.30097H20.9547V10.3851H20.9558Z" fill="#0F1114"/>
</svg>
