<svg width="31" height="32" viewBox="0 0 31 32" fill="none" xmlns="http://www.w3.org/2000/svg">
<path d="M10.9093 0C11.3163 0.0801832 11.7257 0.150344 12.1297 0.243055C16.2863 1.19586 19.387 4.702 19.9141 9.04692C19.9893 9.66772 20.0306 10.2941 19.9639 10.9156C19.9299 11.2313 20.0348 11.2557 20.289 11.2551C22.9996 11.247 25.7109 11.2413 28.4216 11.2545C29.5224 11.2595 30.317 11.8038 30.7847 12.835C30.8799 13.0454 30.929 13.2778 31 13.5002C31 17.8126 31 22.1249 31 26.4379C30.9187 26.4786 30.9448 26.5645 30.9278 26.6302C30.6076 27.8399 29.6383 28.6129 28.4216 28.6248C28.1395 28.6273 27.855 28.6455 27.5754 28.6192C27.3328 28.5966 27.3007 28.695 27.3043 28.9142C27.317 29.6947 27.3043 30.4759 27.3116 31.2571C27.314 31.5521 27.2358 31.7927 26.9701 31.9311C26.6868 32.0783 26.4491 31.9718 26.2228 31.7795C25.0868 30.8142 23.9428 29.8582 22.8128 28.8854C22.5896 28.6931 22.37 28.6179 22.0807 28.6192C19.4289 28.6298 16.777 28.626 14.1258 28.6254C12.4554 28.6248 11.3945 27.5254 11.3939 25.7952C11.3933 24.1395 11.3909 22.4839 11.3976 20.8282C11.3982 20.6221 11.3964 20.5244 11.1337 20.5538C8.56256 20.8408 6.22371 20.1955 4.1208 18.642C4.00799 18.5587 3.90972 18.5637 3.78417 18.5981C3.0363 18.8048 2.28418 18.9959 1.53751 19.2058C1.25062 19.2866 0.997686 19.2791 0.796312 19.0297C0.593118 18.7785 0.642855 18.5129 0.764165 18.2417C1.04257 17.6203 1.30824 16.9926 1.59453 16.3749C1.68976 16.1695 1.68551 16.0229 1.56481 15.8149C-0.430129 12.3582 -0.51262 8.84333 1.28883 5.28144C1.50294 4.85735 1.7031 4.78218 2.15619 4.89619C2.49161 5.01709 2.64386 5.34346 2.51709 5.68862C2.44188 5.89284 2.33209 6.08202 2.24111 6.27935C0.823 9.35763 1.00982 12.3432 2.72999 15.2386C2.79307 15.3451 2.86161 15.4484 2.92894 15.5518C3.11515 15.8356 3.14062 16.1243 2.98292 16.4344C2.8331 16.7295 2.7221 17.044 2.57653 17.3409C2.50132 17.4937 2.54378 17.557 2.7124 17.5131C3.03508 17.4286 3.35777 17.3428 3.6756 17.2438C4.07895 17.1185 4.41437 17.1968 4.74858 17.4605C5.91679 18.382 7.22997 18.9727 8.68751 19.1838C11.4164 19.5791 13.8189 18.8312 15.8642 16.918C17.386 15.4954 18.3165 13.7251 18.5949 11.6266C18.977 8.75 18.2073 6.23362 16.2627 4.11503C14.9022 2.63352 13.2415 1.74273 11.2914 1.43515C9.52758 1.15702 7.83895 1.43014 6.22977 2.22759C5.98473 2.34912 5.75121 2.49884 5.48978 2.58215C5.17377 2.68301 4.89415 2.54582 4.78983 2.25139C4.63758 1.7728 4.72129 1.54729 5.14769 1.3011C6.30317 0.633949 7.54174 0.231153 8.8537 0.063896C8.91618 0.0570053 9.00109 0.100229 9.03324 0C9.19458 0 9.35592 0 9.51727 0C9.63858 0.0513674 9.75928 0.0513674 9.88059 0C10.1026 0 10.3246 0 10.546 0C10.5793 0.0388388 10.6242 0.0306951 10.6673 0.031948C10.7097 0.0306951 10.7546 0.0382123 10.788 0C10.8286 0 10.8693 0 10.9093 0Z" fill="#0F1114"/>
<path d="M9.88041 0C9.7591 0.0920855 9.6384 0.0983498 9.51709 0C9.6384 0 9.75971 0 9.88041 0Z" fill="#0F1114"/>
<path d="M10.6707 0.0532467C10.618 0.0632696 10.5713 0.0582581 10.5458 0C10.5864 0 10.6264 0 10.6671 0C10.6859 0.0106493 10.6926 0.0219251 10.6871 0.0344537C10.6822 0.0469824 10.6768 0.0532467 10.6707 0.0532467Z" fill="#0F1114"/>
<path d="M10.6708 0.0532467C10.6683 0.0357066 10.6671 0.0175401 10.6671 0C10.7078 0 10.7478 0 10.7884 0C10.7733 0.0739189 10.7205 0.0601374 10.6708 0.0532467Z" fill="#0F1114"/>
<path d="M4.7902 2.25211C5.12623 2.60667 5.3088 2.6311 5.75218 2.38178C10.8017 -0.461595 17.0012 2.28468 18.4909 8.02467C19.8205 13.147 16.4711 18.4554 11.3991 19.2566C8.90199 19.6506 6.64138 19.0599 4.6331 17.4731C4.36804 17.2633 4.11208 17.2025 3.79182 17.3021C3.33266 17.445 2.8638 17.5546 2.34035 17.6943C2.54233 17.2345 2.71338 16.8191 2.90565 16.4151C3.06093 16.09 3.01786 15.8194 2.82437 15.5155C0.841567 12.4078 0.690536 9.19485 2.34338 5.89105C2.56962 5.43814 2.53202 5.19633 2.15596 4.89565C2.47318 4.61876 2.66728 4.23727 2.94083 3.92343C3.03485 3.87456 3.11309 3.94222 3.19801 3.96101C3.642 4.05811 3.94588 3.74364 3.85187 3.28509C3.83367 3.19739 3.76877 3.11658 3.81608 3.01948C4.14058 2.7639 4.46569 2.50769 4.7902 2.25211Z" fill="#FDCD33"/>
<path d="M3.81617 3.01883C4.01997 3.38717 4.01269 3.67533 3.79373 3.90022C3.57416 4.12636 3.29818 4.13388 2.94032 3.92277C2.71711 3.55381 2.71771 3.25374 2.94274 3.02134C3.16717 2.78956 3.4577 2.78831 3.81617 3.01883Z" fill="#0F1114"/>
<path d="M26.0988 30.0527C25.4844 29.5347 24.9179 29.058 24.3526 28.5812C23.9856 28.2718 23.6114 27.9711 23.2559 27.6485C23.0376 27.4499 22.8035 27.3716 22.5141 27.3722C19.7216 27.3791 16.929 27.3766 14.1359 27.376C13.1254 27.376 12.6037 26.8423 12.6037 25.8074C12.6031 24.0584 12.6068 22.3088 12.5995 20.5598C12.5989 20.3593 12.6335 20.261 12.8445 20.1902C16.4153 18.9925 18.702 16.5206 19.6888 12.7776C19.7471 12.5565 19.8314 12.4951 20.0485 12.4957C22.8107 12.5039 25.5736 12.5007 28.3358 12.5014C29.2402 12.502 29.7891 13.0639 29.7891 13.9942C29.7903 17.9613 29.7903 21.9285 29.7891 25.8957C29.7885 26.8053 29.2353 27.3722 28.3534 27.3766C28.3133 27.3766 28.2727 27.3766 28.2327 27.3766C25.821 27.3898 26.1116 27.0928 26.0982 29.5973C26.0982 29.7276 26.0988 29.8585 26.0988 30.0527Z" fill="#FDFDFD"/>
<path d="M24.9853 23.6957C24.9835 24.0384 24.7815 24.2965 24.5079 24.3616C24.2332 24.4274 23.953 24.2839 23.8207 23.9826C23.5599 23.3869 23.2979 22.7911 23.0638 22.1841C22.9631 21.9223 22.8308 21.8352 22.5549 21.8415C21.6184 21.8628 20.6806 21.8565 19.7435 21.844C19.5385 21.8415 19.4457 21.9104 19.3687 22.1039C19.1279 22.7084 18.8652 23.3036 18.6068 23.9005C18.4261 24.3178 18.1046 24.4744 17.768 24.3165C17.4301 24.158 17.3301 23.8147 17.5066 23.3913C17.7013 22.9239 17.9002 22.4591 18.1016 21.9949C18.1537 21.8747 18.1865 21.7895 18.0488 21.6836C17.8317 21.5157 17.7947 21.2595 17.8826 21.0064C17.9724 20.749 18.1713 20.5955 18.4394 20.6099C18.6535 20.6212 18.7324 20.5134 18.8076 20.3349C19.396 18.9355 19.9958 17.5416 20.5836 16.1422C20.7055 15.8515 20.8723 15.6335 21.1992 15.6348C21.5249 15.636 21.6905 15.8553 21.8118 16.146C22.3947 17.536 22.9904 18.921 23.5751 20.3105C23.6521 20.494 23.7237 20.6268 23.959 20.6112C24.2265 20.5936 24.4255 20.7515 24.5128 21.0102C24.5983 21.2639 24.5613 21.5207 24.3418 21.6861C24.1986 21.7945 24.2447 21.8828 24.295 21.9987C24.4916 22.4535 24.6881 22.9083 24.8792 23.3662C24.9301 23.4884 24.961 23.6199 24.9853 23.6957Z" fill="#0F1114"/>
<path d="M21.1981 17.8101C21.5844 18.7222 21.935 19.5598 22.2965 20.3923C22.3748 20.5721 22.3269 20.6015 22.1601 20.6003C21.5153 20.5946 20.8699 20.5984 20.2252 20.5971C20.1287 20.5971 19.9995 20.6266 20.0796 20.4399C20.4435 19.5886 20.8044 18.7354 21.1981 17.8101Z" fill="#FDFDFD"/>
<path d="M11.3561 8.30215V7.68449H10.6865V7.87805C10.6865 8.10608 10.7077 8.34913 10.7508 8.60659C10.6453 8.40363 10.4918 8.30215 10.2904 8.30215H6.10706V8.89663H8.77829V9.39527C7.99099 9.60826 7.24676 10.0342 6.5462 10.6738V11.4249L8.77829 13.1357H9.4552V8.89663H10.2328C10.4008 8.89663 10.5161 8.94173 10.5785 9.03069C10.6404 9.11964 10.6719 9.26121 10.6719 9.45478V13.1357H11.3561V8.89663H12.1119V8.30215H11.3561ZM8.77829 12.3395L7.15093 11.0459C7.65497 10.6099 8.19722 10.2823 8.77829 10.0643V12.3395V12.3395Z" fill="#0F1114"/>
<path d="M12.6341 10.2137C12.4157 9.9957 12.3065 9.7207 12.3065 9.38806C12.3065 9.05605 12.4157 8.7823 12.6341 8.56618C12.8524 8.35069 13.132 8.24294 13.4729 8.24294C13.8138 8.24294 14.0934 8.35069 14.3118 8.56618C14.5301 8.78167 14.6393 9.05605 14.6393 9.38806C14.6393 9.72007 14.5301 9.9957 14.3118 10.2137C14.0934 10.4317 13.8138 10.5407 13.4729 10.5407C13.132 10.5407 12.8524 10.4317 12.6341 10.2137ZM12.335 11.4778V10.7343L14.8334 12.4225V13.151L12.335 11.4778ZM14.0127 9.38806C14.0127 9.21454 13.9648 9.07234 13.869 8.96021C13.7732 8.8487 13.6409 8.79295 13.4729 8.79295C13.3049 8.79295 13.1715 8.8487 13.0732 8.96021C12.9749 9.07171 12.9258 9.21454 12.9258 9.38806C12.9258 9.56659 12.9749 9.71067 13.0732 9.81967C13.1715 9.92867 13.3049 9.98317 13.4729 9.98317C13.6409 9.98317 13.7732 9.92867 13.869 9.81967C13.9648 9.71067 14.0127 9.56659 14.0127 9.38806Z" fill="#0F1114"/>
</svg>
